<svg width="42" height="42" viewBox="0 0 42 42" fill="none" xmlns="http://www.w3.org/2000/svg">
<rect width="42" height="42" rx="9.76744" fill="#262525"/>
<g clip-path="url(#clip0_1_236)">
<path d="M32.5195 15.8787H25.6519V14.3163H32.5195V15.8787ZM21.0938 22.2956C21.5496 22.9373 21.7623 23.6906 21.7623 24.5834C21.7623 25.5041 21.5192 26.3411 21.0026 27.0665C20.6684 27.5408 20.2733 27.9593 19.7871 28.2941C19.2401 28.6847 18.602 28.9358 17.8727 29.0753C17.1434 29.2148 16.3229 29.2985 15.4721 29.2985H7.81441V13.6746H16.0191C18.0854 13.7025 19.544 14.2605 20.4253 15.3486C20.9418 16.0182 21.2153 16.7993 21.2153 17.7479C21.2153 18.6965 20.9418 19.4777 20.4253 20.0357C20.1214 20.3705 19.696 20.6495 19.1186 20.9285C19.9998 21.2075 20.6684 21.6539 21.0938 22.2956ZM11.7344 19.8404H15.3505C16.0798 19.8404 16.6876 19.7009 17.1434 19.4498C17.5992 19.1987 17.8423 18.7244 17.8423 18.0827C17.8423 17.3573 17.5384 16.883 16.9307 16.6319C16.4141 16.4645 15.7456 16.3808 14.9251 16.3808H11.7344V19.8404ZM18.1766 24.3602C18.1766 23.5511 17.8119 22.9931 17.0826 22.6862C16.6876 22.5188 16.1102 22.4351 15.3809 22.4351H11.7344V26.5922H15.3201C16.0494 26.5922 16.6268 26.5085 17.0522 26.3132C17.8119 25.9784 18.1766 25.3088 18.1766 24.3602ZM35.0417 21.8213C35.1329 22.3235 35.1632 23.0768 35.1329 24.0533H26.2901C26.3508 25.1693 26.7763 25.9505 27.5663 26.4248C28.0525 26.7038 28.6299 26.8433 29.3288 26.8433C30.0581 26.8433 30.6355 26.6759 31.0913 26.3411C31.3344 26.1458 31.5471 25.8947 31.7598 25.5599H35.0113C34.9201 26.2295 34.5251 26.8991 33.8262 27.5966C32.7322 28.6847 31.2129 29.2427 29.2377 29.2427C27.6271 29.2427 26.1989 28.7963 24.953 27.8756C23.7071 26.9549 23.0994 25.4762 23.0994 23.3837C23.0994 21.4307 23.6463 19.952 24.7707 18.9197C25.895 17.8874 27.3536 17.3573 29.1465 17.3573C30.2101 17.3573 31.1521 17.5247 32.0029 17.8874C32.8538 18.2501 33.5527 18.7802 34.0997 19.5335C34.5859 20.1752 34.8898 20.9285 35.0417 21.8213ZM31.851 22.1003C31.7902 21.3191 31.5167 20.7332 31.0001 20.3426C30.4836 19.952 29.8758 19.7288 29.1161 19.7288C28.2956 19.7288 27.6575 19.952 27.2017 20.3705C26.7459 20.789 26.4724 21.3749 26.3508 22.1003H31.851Z" fill="white"/>
</g>
<defs>
<clipPath id="clip0_1_236">
<rect width="27.3488" height="15.6279" fill="white" transform="translate(7.81429 13.6738)"/>
</clipPath>
</defs>
</svg>
