<svg width="332" height="70" viewBox="0 0 332 70" fill="none" xmlns="http://www.w3.org/2000/svg">
<g filter="url(#filter0_d_1_207)">
<rect x="4" width="324" height="62" rx="5" fill="#3190E8" shape-rendering="crispEdges"/>
<rect x="4.5" y="0.5" width="323" height="61" rx="4.5" stroke="black" shape-rendering="crispEdges"/>
<path d="M41.046 40L34.39 21.8H37.952L43.1 36.594L48.274 21.8H51.784L45.128 40H41.046ZM53.9477 40V21.8H57.2757V40H53.9477ZM60.8032 40V21.8H72.6852V24.478H64.1312V29.47H71.9052V32.07H64.1312V37.322H72.6852V40H60.8032ZM79.5264 40L74.7164 21.8H78.2784L81.5544 36.282L85.4024 21.8H89.0684L92.8124 36.282L96.0884 21.8H99.6764L94.7364 40H90.7844L87.1704 26.506L83.4524 40H79.5264ZM112.99 40V33.526L106.88 21.8H110.65L114.68 30.198L118.684 21.8H122.402L116.318 33.526V40H112.99ZM131.894 40.312C130.074 40.312 128.479 39.9133 127.11 39.116C125.758 38.3187 124.692 37.218 123.912 35.814C123.149 34.3927 122.768 32.7547 122.768 30.9C122.768 29.0453 123.149 27.416 123.912 26.012C124.692 24.5907 125.758 23.4813 127.11 22.684C128.479 21.8867 130.074 21.488 131.894 21.488C133.696 21.488 135.282 21.8867 136.652 22.684C138.021 23.4813 139.087 24.5907 139.85 26.012C140.612 27.416 140.994 29.0453 140.994 30.9C140.994 32.7547 140.612 34.3927 139.85 35.814C139.087 37.218 138.021 38.3187 136.652 39.116C135.282 39.9133 133.696 40.312 131.894 40.312ZM131.894 37.322C133.627 37.322 135.005 36.75 136.028 35.606C137.068 34.462 137.588 32.8933 137.588 30.9C137.588 28.9067 137.068 27.338 136.028 26.194C135.005 25.05 133.627 24.478 131.894 24.478C130.16 24.478 128.774 25.05 127.734 26.194C126.694 27.338 126.174 28.9067 126.174 30.9C126.174 32.8933 126.694 34.462 127.734 35.606C128.774 36.75 130.16 37.322 131.894 37.322ZM150.952 40.312C149.617 40.312 148.413 40.052 147.338 39.532C146.263 38.9947 145.405 38.1887 144.764 37.114C144.14 36.0393 143.828 34.6787 143.828 33.032V21.8H147.156V33.058C147.156 34.4793 147.494 35.5367 148.17 36.23C148.863 36.9233 149.817 37.27 151.03 37.27C152.226 37.27 153.171 36.9233 153.864 36.23C154.557 35.5367 154.904 34.4793 154.904 33.058V21.8H158.232V33.032C158.232 34.6787 157.903 36.0393 157.244 37.114C156.585 38.1887 155.701 38.9947 154.592 39.532C153.5 40.052 152.287 40.312 150.952 40.312ZM161.629 40V21.8H168.311C169.767 21.8 170.963 22.0513 171.899 22.554C172.853 23.0393 173.563 23.7067 174.031 24.556C174.499 25.388 174.733 26.3153 174.733 27.338C174.733 28.4473 174.439 29.4613 173.849 30.38C173.277 31.2987 172.376 31.966 171.145 32.382L174.915 40H171.093L167.713 32.824H164.957V40H161.629ZM164.957 30.38H168.103C169.213 30.38 170.027 30.1113 170.547 29.574C171.067 29.0367 171.327 28.326 171.327 27.442C171.327 26.5753 171.067 25.882 170.547 25.362C170.045 24.842 169.221 24.582 168.077 24.582H164.957V30.38ZM191.044 40.312C189.709 40.312 188.505 40.052 187.43 39.532C186.355 38.9947 185.497 38.1887 184.856 37.114C184.232 36.0393 183.92 34.6787 183.92 33.032V21.8H187.248V33.058C187.248 34.4793 187.586 35.5367 188.262 36.23C188.955 36.9233 189.909 37.27 191.122 37.27C192.318 37.27 193.263 36.9233 193.956 36.23C194.649 35.5367 194.996 34.4793 194.996 33.058V21.8H198.324V33.032C198.324 34.6787 197.995 36.0393 197.336 37.114C196.677 38.1887 195.793 38.9947 194.684 39.532C193.592 40.052 192.379 40.312 191.044 40.312ZM200.837 40L206.531 30.796L200.759 21.8H204.581L208.663 28.144L212.407 21.8H216.151L210.457 30.952L216.281 40H212.459L208.325 33.578L204.581 40H200.837ZM225.074 40.312C223.739 40.312 222.56 40.0867 221.538 39.636C220.515 39.168 219.709 38.5093 219.12 37.66C218.53 36.7933 218.227 35.7447 218.21 34.514H221.72C221.754 35.3633 222.058 36.0827 222.63 36.672C223.219 37.244 224.025 37.53 225.048 37.53C225.932 37.53 226.634 37.322 227.154 36.906C227.674 36.4727 227.934 35.9007 227.934 35.19C227.934 34.4447 227.7 33.864 227.232 33.448C226.781 33.032 226.174 32.694 225.412 32.434C224.649 32.174 223.834 31.8967 222.968 31.602C221.564 31.1167 220.489 30.4927 219.744 29.73C219.016 28.9673 218.652 27.9533 218.652 26.688C218.634 25.6133 218.886 24.6947 219.406 23.932C219.943 23.152 220.671 22.554 221.59 22.138C222.508 21.7047 223.566 21.488 224.762 21.488C225.975 21.488 227.041 21.7047 227.96 22.138C228.896 22.5713 229.624 23.178 230.144 23.958C230.681 24.738 230.967 25.6653 231.002 26.74H227.44C227.422 26.0987 227.171 25.5353 226.686 25.05C226.218 24.5473 225.559 24.296 224.71 24.296C223.982 24.2787 223.366 24.4607 222.864 24.842C222.378 25.206 222.136 25.7433 222.136 26.454C222.136 27.0607 222.326 27.546 222.708 27.91C223.089 28.2567 223.609 28.5513 224.268 28.794C224.926 29.0367 225.68 29.2967 226.53 29.574C227.431 29.886 228.254 30.25 229 30.666C229.745 31.082 230.343 31.6367 230.794 32.33C231.244 33.006 231.47 33.8813 231.47 34.956C231.47 35.9093 231.227 36.7933 230.742 37.608C230.256 38.4227 229.537 39.0813 228.584 39.584C227.63 40.0693 226.46 40.312 225.074 40.312ZM234.373 40V21.8H241.107C242.563 21.8 243.768 22.0427 244.721 22.528C245.675 23.0133 246.385 23.6807 246.853 24.53C247.321 25.3793 247.555 26.3327 247.555 27.39C247.555 28.3953 247.33 29.3227 246.879 30.172C246.429 31.004 245.727 31.68 244.773 32.2C243.82 32.7027 242.598 32.954 241.107 32.954H237.701V40H234.373ZM237.701 30.25H240.899C242.061 30.25 242.893 29.9987 243.395 29.496C243.915 28.976 244.175 28.274 244.175 27.39C244.175 26.4887 243.915 25.7867 243.395 25.284C242.893 24.764 242.061 24.504 240.899 24.504H237.701V30.25ZM247.041 40L253.697 21.8H257.441L264.097 40H260.561L259.105 35.788H252.007L250.525 40H247.041ZM252.917 33.188H258.195L255.543 25.622L252.917 33.188ZM273.643 40.312C271.805 40.312 270.228 39.922 268.911 39.142C267.593 38.3447 266.579 37.244 265.869 35.84C265.158 34.4187 264.803 32.7807 264.803 30.926C264.803 29.0713 265.158 27.4333 265.869 26.012C266.579 24.5907 267.593 23.4813 268.911 22.684C270.228 21.8867 271.805 21.488 273.643 21.488C275.827 21.488 277.612 22.034 278.999 23.126C280.403 24.2007 281.278 25.7173 281.625 27.676H277.959C277.733 26.688 277.248 25.9167 276.503 25.362C275.775 24.79 274.804 24.504 273.591 24.504C271.909 24.504 270.592 25.076 269.639 26.22C268.685 27.364 268.209 28.9327 268.209 30.926C268.209 32.9193 268.685 34.488 269.639 35.632C270.592 36.7587 271.909 37.322 273.591 37.322C274.804 37.322 275.775 37.062 276.503 36.542C277.248 36.0047 277.733 35.268 277.959 34.332H281.625C281.278 36.204 280.403 37.6687 278.999 38.726C277.612 39.7833 275.827 40.312 273.643 40.312ZM284.571 40V21.8H296.453V24.478H287.899V29.47H295.673V32.07H287.899V37.322H296.453V40H284.571Z" fill="white"/>
</g>
<defs>
<filter id="filter0_d_1_207" x="0" y="0" width="332" height="70" filterUnits="userSpaceOnUse" color-interpolation-filters="sRGB">
<feFlood flood-opacity="0" result="BackgroundImageFix"/>
<feColorMatrix in="SourceAlpha" type="matrix" values="0 0 0 0 0 0 0 0 0 0 0 0 0 0 0 0 0 0 127 0" result="hardAlpha"/>
<feOffset dy="4"/>
<feGaussianBlur stdDeviation="2"/>
<feComposite in2="hardAlpha" operator="out"/>
<feColorMatrix type="matrix" values="0 0 0 0 0.0431373 0 0 0 0 0.109804 0 0 0 0 0.247059 0 0 0 1 0"/>
<feBlend mode="normal" in2="BackgroundImageFix" result="effect1_dropShadow_1_207"/>
<feBlend mode="normal" in="SourceGraphic" in2="effect1_dropShadow_1_207" result="shape"/>
</filter>
</defs>
</svg>
