<svg width="263" height="70" viewBox="0 0 263 70" fill="none" xmlns="http://www.w3.org/2000/svg">
<g filter="url(#filter0_d_1_224)">
<rect x="4" width="255" height="62" rx="5" fill="#3190E8" shape-rendering="crispEdges"/>
<rect x="4.5" y="0.5" width="254" height="61" rx="4.5" stroke="black" shape-rendering="crispEdges"/>
<path d="M37.046 40L30.39 21.8H33.952L39.1 36.594L44.274 21.8H47.784L41.128 40H37.046ZM49.9477 40V21.8H53.2757V40H49.9477ZM56.8032 40V21.8H68.6852V24.478H60.1312V29.47H67.9052V32.07H60.1312V37.322H68.6852V40H56.8032ZM75.5264 40L70.7164 21.8H74.2784L77.5544 36.282L81.4024 21.8H85.0684L88.8124 36.282L92.0884 21.8H95.6764L90.7364 40H86.7844L83.1704 26.506L79.4524 40H75.5264ZM112.526 40.312C110.688 40.312 109.111 39.922 107.794 39.142C106.476 38.3447 105.462 37.244 104.752 35.84C104.041 34.4187 103.686 32.7807 103.686 30.926C103.686 29.0713 104.041 27.4333 104.752 26.012C105.462 24.5907 106.476 23.4813 107.794 22.684C109.111 21.8867 110.688 21.488 112.526 21.488C114.71 21.488 116.495 22.034 117.882 23.126C119.286 24.2007 120.161 25.7173 120.508 27.676H116.842C116.616 26.688 116.131 25.9167 115.386 25.362C114.658 24.79 113.687 24.504 112.474 24.504C110.792 24.504 109.475 25.076 108.522 26.22C107.568 27.364 107.092 28.9327 107.092 30.926C107.092 32.9193 107.568 34.488 108.522 35.632C109.475 36.7587 110.792 37.322 112.474 37.322C113.687 37.322 114.658 37.062 115.386 36.542C116.131 36.0047 116.616 35.268 116.842 34.332H120.508C120.161 36.204 119.286 37.6687 117.882 38.726C116.495 39.7833 114.71 40.312 112.526 40.312ZM122.055 40L128.711 21.8H132.455L139.111 40H135.575L134.119 35.788H127.021L125.539 40H122.055ZM127.931 33.188H133.209L130.557 25.622L127.931 33.188ZM141.456 40V21.8H148.138C149.594 21.8 150.79 22.0513 151.726 22.554C152.679 23.0393 153.39 23.7067 153.858 24.556C154.326 25.388 154.56 26.3153 154.56 27.338C154.56 28.4473 154.265 29.4613 153.676 30.38C153.104 31.2987 152.202 31.966 150.972 32.382L154.742 40H150.92L147.54 32.824H144.784V40H141.456ZM144.784 30.38H147.93C149.039 30.38 149.854 30.1113 150.374 29.574C150.894 29.0367 151.154 28.326 151.154 27.442C151.154 26.5753 150.894 25.882 150.374 25.362C149.871 24.842 149.048 24.582 147.904 24.582H144.784V30.38ZM157.655 40V21.8H169.537V24.478H160.983V29.47H168.757V32.07H160.983V37.322H169.537V40H157.655ZM172.686 40V21.8H184.568V24.478H176.014V29.47H183.788V32.07H176.014V37.322H184.568V40H172.686ZM187.717 40V21.8H194.399C195.855 21.8 197.051 22.0513 197.987 22.554C198.941 23.0393 199.651 23.7067 200.119 24.556C200.587 25.388 200.821 26.3153 200.821 27.338C200.821 28.4473 200.527 29.4613 199.937 30.38C199.365 31.2987 198.464 31.966 197.233 32.382L201.003 40H197.181L193.801 32.824H191.045V40H187.717ZM191.045 30.38H194.191C195.301 30.38 196.115 30.1113 196.635 29.574C197.155 29.0367 197.415 28.326 197.415 27.442C197.415 26.5753 197.155 25.882 196.635 25.362C196.133 24.842 195.309 24.582 194.165 24.582H191.045V30.38ZM210.13 40.312C208.796 40.312 207.617 40.0867 206.594 39.636C205.572 39.168 204.766 38.5093 204.176 37.66C203.587 36.7933 203.284 35.7447 203.266 34.514H206.776C206.811 35.3633 207.114 36.0827 207.686 36.672C208.276 37.244 209.082 37.53 210.104 37.53C210.988 37.53 211.69 37.322 212.21 36.906C212.73 36.4727 212.99 35.9007 212.99 35.19C212.99 34.4447 212.756 33.864 212.288 33.448C211.838 33.032 211.231 32.694 210.468 32.434C209.706 32.174 208.891 31.8967 208.024 31.602C206.62 31.1167 205.546 30.4927 204.8 29.73C204.072 28.9673 203.708 27.9533 203.708 26.688C203.691 25.6133 203.942 24.6947 204.462 23.932C205 23.152 205.728 22.554 206.646 22.138C207.565 21.7047 208.622 21.488 209.818 21.488C211.032 21.488 212.098 21.7047 213.016 22.138C213.952 22.5713 214.68 23.178 215.2 23.958C215.738 24.738 216.024 25.6653 216.058 26.74H212.496C212.479 26.0987 212.228 25.5353 211.742 25.05C211.274 24.5473 210.616 24.296 209.766 24.296C209.038 24.2787 208.423 24.4607 207.92 24.842C207.435 25.206 207.192 25.7433 207.192 26.454C207.192 27.0607 207.383 27.546 207.764 27.91C208.146 28.2567 208.666 28.5513 209.324 28.794C209.983 29.0367 210.737 29.2967 211.586 29.574C212.488 29.886 213.311 30.25 214.056 30.666C214.802 31.082 215.4 31.6367 215.85 32.33C216.301 33.006 216.526 33.8813 216.526 34.956C216.526 35.9093 216.284 36.7933 215.798 37.608C215.313 38.4227 214.594 39.0813 213.64 39.584C212.687 40.0693 211.517 40.312 210.13 40.312Z" fill="white"/>
</g>
<defs>
<filter id="filter0_d_1_224" x="0" y="0" width="263" height="70" filterUnits="userSpaceOnUse" color-interpolation-filters="sRGB">
<feFlood flood-opacity="0" result="BackgroundImageFix"/>
<feColorMatrix in="SourceAlpha" type="matrix" values="0 0 0 0 0 0 0 0 0 0 0 0 0 0 0 0 0 0 127 0" result="hardAlpha"/>
<feOffset dy="4"/>
<feGaussianBlur stdDeviation="2"/>
<feComposite in2="hardAlpha" operator="out"/>
<feColorMatrix type="matrix" values="0 0 0 0 0.0431373 0 0 0 0 0.109804 0 0 0 0 0.247059 0 0 0 1 0"/>
<feBlend mode="normal" in2="BackgroundImageFix" result="effect1_dropShadow_1_224"/>
<feBlend mode="normal" in="SourceGraphic" in2="effect1_dropShadow_1_224" result="shape"/>
</filter>
</defs>
</svg>
