<svg width="297" height="70" viewBox="0 0 297 70" fill="none" xmlns="http://www.w3.org/2000/svg">
<g filter="url(#filter0_d_1_128)">
<rect x="4" width="289" height="62" rx="5" fill="#3190E8" shape-rendering="crispEdges"/>
<rect x="4.5" y="0.5" width="288" height="61" rx="4.5" stroke="black" shape-rendering="crispEdges"/>
<path d="M40.864 40L34.338 21.8H38.082L43.1 36.594H43.126L48.17 21.8H51.862L45.362 40H40.864ZM54.9345 40V21.8H58.4445V40H54.9345ZM62.8045 40V21.8H74.7905V24.634H66.3145V29.392H74.0105V32.122H66.3145V37.166H74.7905V40H62.8045ZM82.4136 40L77.7076 21.8H81.4776L84.6496 36.256L88.3936 21.8H92.2936L95.9596 36.256L99.1576 21.8H102.902L98.1176 40H93.8016L90.2916 26.61L86.7036 40H82.4136ZM121.808 40.312C120.005 40.312 118.419 39.9133 117.05 39.116C115.681 38.3187 114.606 37.218 113.826 35.814C113.046 34.3927 112.656 32.7547 112.656 30.9C112.656 29.0453 113.046 27.416 113.826 26.012C114.606 24.5907 115.681 23.4813 117.05 22.684C118.419 21.8867 120.005 21.488 121.808 21.488C123.611 21.488 125.197 21.8867 126.566 22.684C127.953 23.4813 129.027 24.5907 129.79 26.012C130.553 27.416 130.934 29.0453 130.934 30.9C130.934 32.7547 130.553 34.3927 129.79 35.814C129.027 37.218 127.953 38.3187 126.566 39.116C125.197 39.9133 123.611 40.312 121.808 40.312ZM121.808 37.166C122.935 37.166 123.914 36.9147 124.746 36.412C125.578 35.892 126.219 35.164 126.67 34.228C127.138 33.292 127.372 32.1827 127.372 30.9C127.372 29.6 127.138 28.4907 126.67 27.572C126.219 26.636 125.578 25.9167 124.746 25.414C123.914 24.9113 122.935 24.66 121.808 24.66C120.681 24.66 119.702 24.9113 118.87 25.414C118.038 25.9167 117.388 26.636 116.92 27.572C116.469 28.4907 116.244 29.6 116.244 30.9C116.244 32.1827 116.469 33.292 116.92 34.228C117.388 35.164 118.038 35.892 118.87 36.412C119.702 36.9147 120.681 37.166 121.808 37.166ZM141.881 40.312C140.546 40.312 139.333 40.0433 138.241 39.506C137.149 38.9687 136.282 38.1627 135.641 37.088C135 36.0133 134.679 34.644 134.679 32.98V21.8H138.189V33.006C138.189 33.9073 138.336 34.67 138.631 35.294C138.926 35.9007 139.359 36.3513 139.931 36.646C140.503 36.9407 141.179 37.088 141.959 37.088C142.756 37.088 143.432 36.9407 143.987 36.646C144.542 36.3513 144.966 35.9007 145.261 35.294C145.573 34.67 145.729 33.9073 145.729 33.006V21.8H149.239V32.98C149.239 34.644 148.901 36.0133 148.225 37.088C147.566 38.1627 146.682 38.9687 145.573 39.506C144.464 40.0433 143.233 40.312 141.881 40.312ZM153.469 40V21.8H160.281C161.737 21.8 162.942 22.0513 163.895 22.554C164.866 23.0567 165.585 23.7327 166.053 24.582C166.521 25.414 166.755 26.3413 166.755 27.364C166.755 28.3347 166.521 29.2447 166.053 30.094C165.603 30.926 164.892 31.602 163.921 32.122C162.968 32.6247 161.737 32.876 160.229 32.876H156.979V40H153.469ZM162.907 40L159.163 31.992H162.959L166.911 40H162.907ZM156.979 30.328H160.073C161.131 30.328 161.911 30.068 162.413 29.548C162.916 29.028 163.167 28.3433 163.167 27.494C163.167 26.6447 162.916 25.9773 162.413 25.492C161.928 24.9893 161.139 24.738 160.047 24.738H156.979V30.328ZM183.982 40.312C182.665 40.312 181.486 40.0867 180.446 39.636C179.423 39.1853 178.609 38.5267 178.002 37.66C177.413 36.7933 177.109 35.7447 177.092 34.514H180.81C180.827 35.0513 180.966 35.5367 181.226 35.97C181.486 36.4033 181.841 36.75 182.292 37.01C182.76 37.2527 183.315 37.374 183.956 37.374C184.511 37.374 184.987 37.2873 185.386 37.114C185.802 36.9407 186.123 36.6893 186.348 36.36C186.591 36.0307 186.712 35.632 186.712 35.164C186.712 34.6267 186.573 34.1847 186.296 33.838C186.036 33.4913 185.681 33.1967 185.23 32.954C184.779 32.7113 184.259 32.4947 183.67 32.304C183.098 32.096 182.491 31.888 181.85 31.68C180.446 31.1947 179.363 30.5707 178.6 29.808C177.855 29.028 177.482 27.988 177.482 26.688C177.482 25.6133 177.742 24.686 178.262 23.906C178.799 23.126 179.536 22.528 180.472 22.112C181.408 21.696 182.474 21.488 183.67 21.488C184.901 21.488 185.975 21.7047 186.894 22.138C187.83 22.554 188.567 23.1607 189.104 23.958C189.659 24.7553 189.945 25.6913 189.962 26.766H186.218C186.201 26.35 186.079 25.9687 185.854 25.622C185.646 25.258 185.351 24.972 184.97 24.764C184.589 24.5387 184.138 24.426 183.618 24.426C183.167 24.4087 182.751 24.478 182.37 24.634C182.006 24.79 181.711 25.024 181.486 25.336C181.278 25.6307 181.174 26.0033 181.174 26.454C181.174 26.8873 181.278 27.26 181.486 27.572C181.694 27.8667 181.989 28.118 182.37 28.326C182.769 28.534 183.219 28.7333 183.722 28.924C184.242 29.0973 184.805 29.288 185.412 29.496C186.331 29.808 187.163 30.1807 187.908 30.614C188.671 31.03 189.277 31.576 189.728 32.252C190.196 32.928 190.43 33.8207 190.43 34.93C190.43 35.8833 190.179 36.7673 189.676 37.582C189.191 38.3967 188.471 39.0553 187.518 39.558C186.565 40.0607 185.386 40.312 183.982 40.312ZM198.305 40V24.634H192.975V21.8H207.119V24.634H201.815V40H198.305ZM218.413 40.312C216.61 40.312 215.024 39.9133 213.655 39.116C212.286 38.3187 211.211 37.218 210.431 35.814C209.651 34.3927 209.261 32.7547 209.261 30.9C209.261 29.0453 209.651 27.416 210.431 26.012C211.211 24.5907 212.286 23.4813 213.655 22.684C215.024 21.8867 216.61 21.488 218.413 21.488C220.216 21.488 221.802 21.8867 223.171 22.684C224.558 23.4813 225.632 24.5907 226.395 26.012C227.158 27.416 227.539 29.0453 227.539 30.9C227.539 32.7547 227.158 34.3927 226.395 35.814C225.632 37.218 224.558 38.3187 223.171 39.116C221.802 39.9133 220.216 40.312 218.413 40.312ZM218.413 37.166C219.54 37.166 220.519 36.9147 221.351 36.412C222.183 35.892 222.824 35.164 223.275 34.228C223.743 33.292 223.977 32.1827 223.977 30.9C223.977 29.6 223.743 28.4907 223.275 27.572C222.824 26.636 222.183 25.9167 221.351 25.414C220.519 24.9113 219.54 24.66 218.413 24.66C217.286 24.66 216.307 24.9113 215.475 25.414C214.643 25.9167 213.993 26.636 213.525 27.572C213.074 28.4907 212.849 29.6 212.849 30.9C212.849 32.1827 213.074 33.292 213.525 34.228C213.993 35.164 214.643 35.892 215.475 36.412C216.307 36.9147 217.286 37.166 218.413 37.166ZM231.388 40V21.8H238.2C239.656 21.8 240.861 22.0513 241.814 22.554C242.785 23.0567 243.504 23.7327 243.972 24.582C244.44 25.414 244.674 26.3413 244.674 27.364C244.674 28.3347 244.44 29.2447 243.972 30.094C243.521 30.926 242.811 31.602 241.84 32.122C240.887 32.6247 239.656 32.876 238.148 32.876H234.898V40H231.388ZM240.826 40L237.082 31.992H240.878L244.83 40H240.826ZM234.898 30.328H237.992C239.049 30.328 239.829 30.068 240.332 29.548C240.835 29.028 241.086 28.3433 241.086 27.494C241.086 26.6447 240.835 25.9773 240.332 25.492C239.847 24.9893 239.058 24.738 237.966 24.738H234.898V30.328ZM252.726 40V33.63L246.59 21.8H250.568L254.91 30.952H254.104L258.446 21.8H262.372L256.236 33.63V40H252.726Z" fill="white"/>
</g>
<defs>
<filter id="filter0_d_1_128" x="0" y="0" width="297" height="70" filterUnits="userSpaceOnUse" color-interpolation-filters="sRGB">
<feFlood flood-opacity="0" result="BackgroundImageFix"/>
<feColorMatrix in="SourceAlpha" type="matrix" values="0 0 0 0 0 0 0 0 0 0 0 0 0 0 0 0 0 0 127 0" result="hardAlpha"/>
<feOffset dy="4"/>
<feGaussianBlur stdDeviation="2"/>
<feComposite in2="hardAlpha" operator="out"/>
<feColorMatrix type="matrix" values="0 0 0 0 0.0431373 0 0 0 0 0.109804 0 0 0 0 0.247059 0 0 0 1 0"/>
<feBlend mode="normal" in2="BackgroundImageFix" result="effect1_dropShadow_1_128"/>
<feBlend mode="normal" in="SourceGraphic" in2="effect1_dropShadow_1_128" result="shape"/>
</filter>
</defs>
</svg>
