<svg width="320" height="70" viewBox="0 0 320 70" fill="none" xmlns="http://www.w3.org/2000/svg">
<g filter="url(#filter0_d_1_219)">
<rect x="4" width="312" height="62" rx="5" fill="#3190E8" shape-rendering="crispEdges"/>
<rect x="4.5" y="0.5" width="311" height="61" rx="4.5" stroke="black" shape-rendering="crispEdges"/>
<path d="M41.046 40L34.39 21.8H37.952L43.1 36.594L48.274 21.8H51.784L45.128 40H41.046ZM53.9477 40V21.8H57.2757V40H53.9477ZM60.8032 40V21.8H72.6852V24.478H64.1312V29.47H71.9052V32.07H64.1312V37.322H72.6852V40H60.8032ZM79.5264 40L74.7164 21.8H78.2784L81.5544 36.282L85.4024 21.8H89.0684L92.8124 36.282L96.0884 21.8H99.6764L94.7364 40H90.7844L87.1704 26.506L83.4524 40H79.5264ZM108.284 40V21.8H112.236L118.034 33.344L123.754 21.8H127.706V40H124.378V27.442L119.308 37.4H116.682L111.612 27.442V40H108.284ZM139.765 40.312C137.945 40.312 136.35 39.9133 134.981 39.116C133.629 38.3187 132.563 37.218 131.783 35.814C131.02 34.3927 130.639 32.7547 130.639 30.9C130.639 29.0453 131.02 27.416 131.783 26.012C132.563 24.5907 133.629 23.4813 134.981 22.684C136.35 21.8867 137.945 21.488 139.765 21.488C141.567 21.488 143.153 21.8867 144.523 22.684C145.892 23.4813 146.958 24.5907 147.721 26.012C148.483 27.416 148.865 29.0453 148.865 30.9C148.865 32.7547 148.483 34.3927 147.721 35.814C146.958 37.218 145.892 38.3187 144.523 39.116C143.153 39.9133 141.567 40.312 139.765 40.312ZM139.765 37.322C141.498 37.322 142.876 36.75 143.899 35.606C144.939 34.462 145.459 32.8933 145.459 30.9C145.459 28.9067 144.939 27.338 143.899 26.194C142.876 25.05 141.498 24.478 139.765 24.478C138.031 24.478 136.645 25.05 135.605 26.194C134.565 27.338 134.045 28.9067 134.045 30.9C134.045 32.8933 134.565 34.462 135.605 35.606C136.645 36.75 138.031 37.322 139.765 37.322ZM151.803 40V21.8H158.485C159.941 21.8 161.137 22.0513 162.073 22.554C163.026 23.0393 163.737 23.7067 164.205 24.556C164.673 25.388 164.907 26.3153 164.907 27.338C164.907 28.4473 164.612 29.4613 164.023 30.38C163.451 31.2987 162.55 31.966 161.319 32.382L165.089 40H161.267L157.887 32.824H155.131V40H151.803ZM155.131 30.38H158.277C159.386 30.38 160.201 30.1113 160.721 29.574C161.241 29.0367 161.501 28.326 161.501 27.442C161.501 26.5753 161.241 25.882 160.721 25.362C160.218 24.842 159.395 24.582 158.251 24.582H155.131V30.38ZM168.002 40V21.8H179.884V24.478H171.33V29.47H179.104V32.07H171.33V37.322H179.884V40H168.002ZM189.229 40V21.8H201.111V24.478H192.557V29.47H200.331V32.07H192.557V37.322H201.111V40H189.229ZM209.538 40L202.882 21.8H206.444L211.592 36.594L216.766 21.8H220.276L213.62 40H209.538ZM222.44 40V21.8H234.322V24.478H225.768V29.47H233.542V32.07H225.768V37.322H234.322V40H222.44ZM237.471 40V21.8H240.799L249.353 34.618V21.8H252.681V40H249.353L240.799 27.208V40H237.471ZM260.447 40V24.478H255.143V21.8H269.105V24.478H263.775V40H260.447ZM277.556 40.312C276.222 40.312 275.043 40.0867 274.02 39.636C272.998 39.168 272.192 38.5093 271.602 37.66C271.013 36.7933 270.71 35.7447 270.692 34.514H274.202C274.237 35.3633 274.54 36.0827 275.112 36.672C275.702 37.244 276.508 37.53 277.53 37.53C278.414 37.53 279.116 37.322 279.636 36.906C280.156 36.4727 280.416 35.9007 280.416 35.19C280.416 34.4447 280.182 33.864 279.714 33.448C279.264 33.032 278.657 32.694 277.894 32.434C277.132 32.174 276.317 31.8967 275.45 31.602C274.046 31.1167 272.972 30.4927 272.226 29.73C271.498 28.9673 271.134 27.9533 271.134 26.688C271.117 25.6133 271.368 24.6947 271.888 23.932C272.426 23.152 273.154 22.554 274.072 22.138C274.991 21.7047 276.048 21.488 277.244 21.488C278.458 21.488 279.524 21.7047 280.442 22.138C281.378 22.5713 282.106 23.178 282.626 23.958C283.164 24.738 283.45 25.6653 283.484 26.74H279.922C279.905 26.0987 279.654 25.5353 279.168 25.05C278.7 24.5473 278.042 24.296 277.192 24.296C276.464 24.2787 275.849 24.4607 275.346 24.842C274.861 25.206 274.618 25.7433 274.618 26.454C274.618 27.0607 274.809 27.546 275.19 27.91C275.572 28.2567 276.092 28.5513 276.75 28.794C277.409 29.0367 278.163 29.2967 279.012 29.574C279.914 29.886 280.737 30.25 281.482 30.666C282.228 31.082 282.826 31.6367 283.276 32.33C283.727 33.006 283.952 33.8813 283.952 34.956C283.952 35.9093 283.71 36.7933 283.224 37.608C282.739 38.4227 282.02 39.0813 281.066 39.584C280.113 40.0693 278.943 40.312 277.556 40.312Z" fill="white"/>
</g>
<defs>
<filter id="filter0_d_1_219" x="0" y="0" width="320" height="70" filterUnits="userSpaceOnUse" color-interpolation-filters="sRGB">
<feFlood flood-opacity="0" result="BackgroundImageFix"/>
<feColorMatrix in="SourceAlpha" type="matrix" values="0 0 0 0 0 0 0 0 0 0 0 0 0 0 0 0 0 0 127 0" result="hardAlpha"/>
<feOffset dy="4"/>
<feGaussianBlur stdDeviation="2"/>
<feComposite in2="hardAlpha" operator="out"/>
<feColorMatrix type="matrix" values="0 0 0 0 0.0431373 0 0 0 0 0.109804 0 0 0 0 0.247059 0 0 0 1 0"/>
<feBlend mode="normal" in2="BackgroundImageFix" result="effect1_dropShadow_1_219"/>
<feBlend mode="normal" in="SourceGraphic" in2="effect1_dropShadow_1_219" result="shape"/>
</filter>
</defs>
</svg>
