<svg width="49" height="68" viewBox="0 0 49 68" fill="none" xmlns="http://www.w3.org/2000/svg">
<path d="M15.9021 0.869411C15.7901 0.670269 15.7371 0.60037 15.5175 0.566573C13.8868 0.315696 11.8807 0.841594 10.2874 1.09858C9.30379 1.25723 1.71413 2.937 4.50896 5.32192C6.27988 6.83311 9.33505 6.91171 11.5151 6.81973C14.6652 6.68681 18.6974 6.13548 21.3859 4.33975C23.0664 3.21734 22.5399 1.78571 20.9112 1.07403C19.6347 0.516234 18.4287 0.427431 17.0808 0.427429" stroke="black" stroke-width="0.854872" stroke-linecap="round"/>
<path d="M13.3977 3.07953C13.2324 2.93488 12.1883 5.05641 12.0718 5.28941" stroke="black" stroke-width="0.854872" stroke-linecap="round"/>
<path d="M16.1969 3.22638C15.6129 3.81038 15.324 4.87168 14.871 5.58359" stroke="black" stroke-width="0.854872" stroke-linecap="round"/>
<path d="M16.3442 31.6605C16.1335 31.5401 16.1735 31.5219 16.4097 31.5131C18.6688 31.4295 21.0178 30.5759 23.1703 30.0153C23.3866 29.959 30.4875 27.8592 30.4875 28.272" stroke="black" stroke-width="0.854872" stroke-linecap="round"/>
<path d="M15.9022 32.2496C13.56 32.5424 20.4307 33.6189 22.7529 34.0421C26.0918 34.6505 36.0913 36.2274 32.6974 36.2274" stroke="black" stroke-width="0.854872" stroke-linecap="round"/>
<path d="M31.9606 18.9907C31.8497 18.8936 31.8177 18.8893 31.8133 19.0562C31.7588 21.1265 31.6352 23.1917 31.5187 25.2602C31.4059 27.2612 31.224 29.2851 31.224 31.2924C31.224 31.5954 31.3392 31.1518 31.3713 31.0714" stroke="black" stroke-width="0.854872" stroke-linecap="round"/>
<path d="M32.2553 18.5479C32.1076 18.5479 32.5514 18.5386 32.6973 18.5152C36.277 17.9402 39.8038 16.6664 43.2556 15.6014C44.8381 15.1132 46.5867 14.3032 48.2319 13.9645C48.6336 13.8818 48.0473 14.9417 48.0191 15.0121" stroke="black" stroke-width="0.854872" stroke-linecap="round"/>
<path d="M48.0191 15.3075C47.9619 14.3337 47.709 15.5781 47.659 15.8477C47.1602 18.5381 46.2894 21.1759 45.5965 23.8197C45.4139 24.5161 45.0726 25.1951 45.0726 25.915" stroke="black" stroke-width="0.854872" stroke-linecap="round"/>
<path d="M33.8761 35.3436C32.1266 35.3436 35.7579 33.8714 35.8813 33.8049C39.4879 31.8617 43.0686 29.8688 46.6852 27.9446C47.5592 27.4796 47.43 27.532 47.43 28.272" stroke="black" stroke-width="0.854872" stroke-linecap="round"/>
<path d="M9.71461 12.803C4.68557 12.803 1.97913 17.8549 0.940541 22.1009C0.541895 23.7307 0.395884 25.3868 0.433085 27.0609C0.451181 27.8752 1.95903 28.0388 2.52838 28.0922C4.51016 28.278 6.48209 27.9797 8.45415 27.863C11.0147 27.7115 13.691 27.8469 16.2133 27.3883C17.0835 27.23 18.2987 27.0063 19.0698 26.578C20.3446 25.8697 17.44 26.0552 16.8681 25.9887C14.3883 25.7003 11.7969 25.1784 9.29718 25.1784C8.93713 25.1784 7.75955 24.9634 7.65204 25.1784" stroke="black" stroke-width="0.854872" stroke-linecap="round"/>
<path d="M9.41992 12.9506C9.48167 12.4566 17.0809 13.1994 17.0809 15.5288C17.0809 16.3882 17.0809 17.2476 17.0809 18.107C17.0809 19.2027 18.3982 19.7685 19.3235 20.0222C21.2471 20.5496 23.2909 20.2784 25.2411 20.546C26.1171 20.6663 27.0486 20.8966 27.9011 21.1353C28.4976 21.3023 28.6899 21.3246 28.1958 21.7246C26.8333 22.8276 25.0116 22.5069 23.3831 22.5267C21.5727 22.5488 19.767 22.8573 17.9648 23.0015C17.6097 23.0299 15.7169 23.1392 17.0809 22.9687" stroke="black" stroke-width="0.854872" stroke-linecap="round"/>
<path d="M2.94615 31.3485C2.94615 33.8404 2.82595 36.3296 2.7718 38.8207C2.73655 40.4423 2.48821 42.4672 3.31976 43.964C4.29704 45.7231 6.37672 45.1441 8.03967 44.9976C13.8645 44.4848 20.4699 43.3502 26.2841 44.5742C26.9979 44.7245 26.4834 52.9704 26.4834 53.5159C26.4834 56.7813 26.2733 60.1541 26.9815 63.3667C27.1114 63.9556 27.6105 66.6098 28.5507 66.7665C29.8754 66.9873 30.6974 64.2902 30.9667 63.5784C32.2586 60.164 32.6094 56.5367 33.308 52.9804C33.4695 52.1582 33.6567 51.4595 33.6567 50.6266" stroke="black" stroke-width="0.854872" stroke-linecap="round"/>
<path d="M36.5706 47.7124C36.5706 45.0545 36.8249 53.033 37.2431 55.6578C37.3872 56.5626 37.7858 60.1391 38.7126 60.8011C39.3524 61.2581 40.6655 53.3662 40.7051 52.8682C40.9566 49.707 41.071 46.302 40.8172 43.1295C40.7372 42.1291 40.6358 40.9876 40.3315 40.041C40.1327 39.4224 40.0552 38.0734 39.2605 38.0734C38.831 38.0734 38.1094 38.2369 37.9156 37.8492" stroke="black" stroke-width="0.854872" stroke-linecap="round"/>
</svg>
